<svg width="53" height="40" viewBox="0 0 53 40" fill="none" xmlns="http://www.w3.org/2000/svg">
<path d="M19.1425 13.9562H13.8089C13.5268 13.9562 13.2982 14.1848 13.2982 14.4667V33.1309C13.2982 33.4128 13.5268 33.6414 13.8089 33.6414H19.1425C19.4245 33.6414 19.6532 33.4128 19.6532 33.1309V14.4667C19.6532 14.1848 19.4245 13.9562 19.1425 13.9562Z" fill="#ADC3D3"/>
<path d="M33.3627 16.2696C33.6492 16.9171 34.0289 17.5193 34.4898 18.0569C34.5331 18.1072 34.5773 18.1566 34.6224 18.2051C34.7965 18.3918 34.984 18.5656 35.1833 18.7252C35.231 18.7642 35.2804 18.8014 35.329 18.8378C35.909 19.266 36.4959 19.4853 37.0413 19.4853C37.0916 19.4853 37.141 19.4853 37.1904 19.4792L37.2441 19.4749H37.2511C37.2823 19.4749 37.3126 19.468 37.3439 19.4628C37.3586 19.4628 37.3725 19.4576 37.3872 19.455L37.4418 19.4446L37.486 19.4342L37.5389 19.422L37.5745 19.4108L37.6352 19.3934L37.6716 19.3804C37.6906 19.3735 37.7106 19.3674 37.7297 19.3596L37.7453 19.3527C37.7713 19.3432 37.7964 19.3328 37.8224 19.3206C37.8684 19.2998 37.9135 19.2773 37.9577 19.2539L37.9715 19.2452C38.0106 19.2227 38.0487 19.2001 38.086 19.1759C38.1691 19.1211 38.2477 19.0596 38.3209 18.9921C38.3261 18.9921 38.3305 18.9826 38.3348 18.9783C38.4424 18.8773 38.5389 18.7652 38.6226 18.6437L38.6374 18.6203C38.6617 18.5839 38.6859 18.5475 38.7085 18.5093C38.7117 18.504 38.7146 18.4985 38.7171 18.4929C38.7414 18.4513 38.7648 18.4062 38.7865 18.3663C38.7926 18.355 38.7969 18.3438 38.8021 18.3334C38.8212 18.2944 38.8403 18.2554 38.8576 18.2146C38.8671 18.193 38.8749 18.1696 38.8836 18.147C38.8923 18.1245 38.9087 18.0863 38.9209 18.0543L38.9417 17.9893C39.0325 17.713 39.0907 17.427 39.1151 17.1372C39.2018 16.1656 38.9824 15.0362 38.4969 13.9579C37.4349 11.5977 35.4755 10.256 34.0355 10.9034C33.2977 11.2354 32.8382 12.0112 32.7419 13.0894C32.7202 13.3405 32.7176 13.5929 32.7341 13.8444C32.797 14.6838 33.0099 15.5052 33.3627 16.2696Z" fill="#ADC3D3"/>
<path d="M51.1965 10.9156C50.9719 10.9154 50.7523 10.9819 50.5655 11.1065C50.3787 11.2312 50.2331 11.4085 50.1471 11.616C50.0612 11.8234 50.0387 12.0517 50.0826 12.2719C50.1265 12.4922 50.2348 12.6944 50.3937 12.8531C50.5527 13.0117 50.7551 13.1197 50.9755 13.1632C51.1958 13.2068 51.4241 13.184 51.6315 13.0977C51.8389 13.0115 52.016 12.8657 52.1404 12.6787C52.2649 12.4918 52.331 12.2721 52.3305 12.0476C52.3298 11.7473 52.21 11.4595 51.9975 11.2473C51.7849 11.0351 51.4969 10.9158 51.1965 10.9156Z" fill="#ADC3D3"/>
<path d="M46.552 13.6398C46.5439 13.6025 46.5237 13.569 46.4945 13.5443C46.4653 13.5197 46.4289 13.5054 46.3907 13.5036C46.3526 13.5018 46.3149 13.5127 46.2836 13.5345C46.2522 13.5563 46.229 13.5879 46.2174 13.6242C46.1069 13.911 45.9374 14.1714 45.72 14.3886C45.5025 14.6058 45.242 14.7751 44.9551 14.8854C44.9194 14.897 44.8884 14.92 44.8668 14.9508C44.8453 14.9815 44.8343 15.0185 44.8356 15.056C44.8369 15.0936 44.8503 15.1297 44.8739 15.1589C44.8975 15.1882 44.9299 15.209 44.9663 15.2182C45.2612 15.3077 45.5294 15.4686 45.747 15.6866C45.9647 15.9047 46.1251 16.1731 46.2139 16.4681C46.2252 16.5033 46.2474 16.534 46.2774 16.5557C46.3073 16.5773 46.3434 16.5889 46.3804 16.5886C46.4173 16.5892 46.4534 16.578 46.4835 16.5566C46.5136 16.5353 46.5361 16.5049 46.5477 16.4698C46.6419 16.1772 46.8044 15.9112 47.0218 15.6939C47.2392 15.4765 47.5052 15.3141 47.7979 15.22C47.8334 15.2076 47.864 15.1843 47.8854 15.1534C47.9068 15.1225 47.9179 15.0857 47.917 15.0481C47.9161 15.0105 47.9034 14.9742 47.8806 14.9444C47.8578 14.9145 47.8261 14.8926 47.7901 14.8819C47.4916 14.8043 47.2193 14.6481 47.0016 14.4297C46.7839 14.2113 46.6287 13.9385 46.552 13.6398Z" fill="#ADC3D3"/>
<path d="M44.5059 7.58892C45.6842 7.98417 46.4497 8.74953 46.8468 9.9292C46.8688 9.99506 46.911 10.0524 46.9672 10.0931C47.0235 10.1338 47.0911 10.1559 47.1606 10.1563C47.2298 10.1562 47.2972 10.1347 47.3536 10.0946C47.41 10.0545 47.4525 9.99795 47.4753 9.93267C47.8863 8.76513 48.6536 7.99804 49.8222 7.58719C49.8884 7.56356 49.9454 7.51967 49.9851 7.46178C50.0248 7.40388 50.0453 7.33494 50.0436 7.26475C50.0418 7.19456 50.018 7.1267 49.9755 7.07083C49.9329 7.01496 49.8738 6.97394 49.8066 6.95358C48.6024 6.59387 47.8412 5.83285 47.4814 4.62804C47.4619 4.56185 47.4222 4.50337 47.368 4.46069C47.3137 4.41801 47.2476 4.39324 47.1786 4.38982C47.1097 4.38639 47.0414 4.40447 46.9832 4.44156C46.925 4.47865 46.8797 4.53291 46.8537 4.59684C46.6462 5.13491 46.3282 5.62354 45.9202 6.03125C45.5123 6.43896 45.0234 6.75669 44.4851 6.96398C44.4222 6.98987 44.3687 7.03437 44.3318 7.0915C44.2949 7.14864 44.2763 7.21569 44.2786 7.28367C44.2808 7.35166 44.3038 7.41732 44.3445 7.47188C44.3851 7.52644 44.4414 7.56727 44.5059 7.58892Z" fill="#ADC3D3"/>
<path d="M49.7113 37.027H44.3855L48.6805 35.0958C49.0642 34.9221 49.3635 34.6035 49.5128 34.2098C49.6621 33.816 49.6493 33.3791 49.4772 32.9948L45.5568 24.2829L43.8739 20.5419L38.2715 8.08731C38.186 7.89697 38.0637 7.72536 37.9117 7.58229C37.7598 7.43922 37.5811 7.3275 37.3859 7.25352C37.1907 7.17954 36.9829 7.14475 36.7742 7.15114C36.5656 7.15753 36.3603 7.20497 36.17 7.29075L29.9173 10.1017C29.7154 10.192 29.5348 10.324 29.3876 10.4891L27.1976 1.22423C27.1499 1.02105 27.0626 0.829279 26.9406 0.659891C26.8186 0.490503 26.6645 0.346827 26.4869 0.23709C26.3093 0.127352 26.1119 0.053708 25.9058 0.0203736C25.6997 -0.0129607 25.4891 -0.00533068 25.2859 0.0428269L20.2748 1.22597C19.865 1.32353 19.5106 1.57964 19.2894 1.9381C19.0682 2.29656 18.9982 2.7281 19.0948 3.13806L20.6918 9.89885C20.5203 9.83682 20.3393 9.80486 20.1569 9.80438H12.7963C12.602 9.80482 12.4095 9.84096 12.2284 9.91099V5.02675C12.2279 4.57885 12.0497 4.14943 11.733 3.83272C11.4162 3.516 10.9866 3.33787 10.5386 3.33741H3.86291C3.64078 3.33719 3.42078 3.3807 3.21548 3.46548C3.01017 3.55025 2.82358 3.67462 2.66635 3.83149C2.50912 3.98836 2.38434 4.17465 2.29912 4.37974C2.21391 4.58482 2.16993 4.80467 2.1697 5.02675V36.1091C2.16948 36.4362 2.26502 36.7561 2.44453 37.0296H1.45011C1.06233 37.0389 0.693578 37.1995 0.422626 37.477C0.151674 37.7546 0 38.127 0 38.5148C0 38.9026 0.151674 39.275 0.422626 39.5525C0.693578 39.83 1.06233 39.9906 1.45011 40H49.7113C50.0991 39.9906 50.4678 39.83 50.7388 39.5525C51.0097 39.275 51.1614 38.9026 51.1614 38.5148C51.1614 38.127 51.0097 37.7546 50.7388 37.477C50.4678 37.1995 50.0991 37.0389 49.7113 37.0296V37.027ZM35.1383 34.8159L34.4135 31.7536L33.7711 29.0362L30.5372 15.3569L34.723 24.6599L36.4058 28.4L40.2881 37.0296H32.6917L33.9566 36.7314C34.367 36.6334 34.7218 36.3768 34.9433 36.0178C35.1648 35.6587 35.2349 35.2265 35.1383 34.8159ZM44.8346 25.167L48.5452 33.4134C48.6071 33.5507 48.612 33.7069 48.5589 33.8478C48.5057 33.9887 48.3989 34.1027 48.2617 34.1649L42.0091 36.9776C41.8714 37.0391 41.715 37.0435 41.5741 36.9899C41.4332 36.9362 41.3193 36.829 41.2574 36.6915L37.5467 28.4434L37.6334 28.4026L44.8346 25.167ZM30.0378 11.349C30.0642 11.2792 30.1041 11.2153 30.1553 11.161C30.2065 11.1067 30.2679 11.063 30.3361 11.0326L36.5896 8.22079C36.6627 8.18803 36.7418 8.1709 36.8219 8.17052C36.8907 8.17037 36.9589 8.18301 37.0231 8.20779C37.0931 8.234 37.1572 8.27386 37.2117 8.32504C37.2661 8.37623 37.3099 8.43772 37.3404 8.50596L42.7339 20.4942L36.2263 23.4204L35.4461 23.7724L30.0491 11.7875C30.018 11.7189 30.001 11.6447 29.999 11.5694C29.9971 11.4941 30.0103 11.4191 30.0378 11.349ZM29.6624 30.528L32.8945 29.7635L33.3029 31.4909L29.2029 32.4591L27.1881 32.9367L26.7806 31.211L29.6624 30.528ZM21.5302 3.5047L25.1828 2.64227C25.2482 2.6264 25.3162 2.62362 25.3828 2.63409C25.4493 2.64455 25.5131 2.66806 25.5706 2.70325C25.628 2.73845 25.6779 2.78464 25.7175 2.83918C25.757 2.89371 25.7854 2.95552 25.8009 3.02104L27.2748 9.25051C27.2902 9.31574 27.2927 9.38337 27.2819 9.44953C27.2712 9.5157 27.2475 9.5791 27.2123 9.6361C27.177 9.69311 27.1308 9.7426 27.0764 9.78173C27.0219 9.82087 26.9603 9.84889 26.8951 9.86418L23.2425 10.731C23.2041 10.7398 23.1648 10.7445 23.1254 10.7448C23.0104 10.7449 22.8986 10.7061 22.8084 10.6346C22.7182 10.5632 22.6549 10.4633 22.6287 10.3513L21.1548 4.12184C21.1388 4.05667 21.1358 3.98898 21.146 3.92264C21.1562 3.85631 21.1794 3.79265 21.2143 3.73531C21.2491 3.67797 21.295 3.62808 21.3492 3.5885C21.4034 3.54893 21.4649 3.52045 21.5302 3.5047ZM12.2249 36.1065V11.3906C12.2251 11.24 12.285 11.0956 12.3914 10.9891C12.4979 10.8825 12.6422 10.8224 12.7928 10.822H20.1569C20.3077 10.8222 20.4522 10.8822 20.5588 10.9888C20.6654 11.0953 20.7254 11.2398 20.7256 11.3906V36.207C20.7254 36.3577 20.6654 36.5021 20.5587 36.6085C20.4521 36.715 20.3076 36.7748 20.1569 36.7748H12.7963C12.6457 36.7745 12.5014 36.7146 12.395 36.6082C12.2885 36.5018 12.2286 36.3575 12.2284 36.207L12.2249 36.1065ZM3.191 11.1739H11.2036V12.2539H3.191V11.1739ZM3.191 13.2741H11.2036V15.675H3.191V13.2741ZM3.191 28.6739H11.2036V29.7531H3.191V28.6739ZM21.7443 36.207V14.3584L25.6648 30.9475L26.3072 33.6639L27.0312 36.7279C27.055 36.8299 27.089 36.9292 27.1326 37.0244H21.5155C21.6659 36.7783 21.7457 36.4955 21.7461 36.207H21.7443Z" fill="#ADC3D3"/>
</svg>
